<?xml version="1.0" encoding="UTF-8"?><svg id="_イヤー_1" xmlns="http://www.w3.org/2000/svg" xmlns:xlink="http://www.w3.org/1999/xlink" viewBox="0 0 1366 768"><defs><style>.cls-1{letter-spacing:.2em;}.cls-2{font-family:HGSGothicE, HGSGothicE;font-size:371.43px;isolation:isolate;stroke-linecap:round;stroke-linejoin:round;stroke-width:.71px;}.cls-2,.cls-3{stroke:#000;}.cls-4{letter-spacing:.06em;}.cls-5{letter-spacing:.2em;}.cls-3{font-family:MyriadConceptRoman-Regular, 'Myriad Variable Concept';font-size:200.05px;font-variation-settings:'wght' 400, 'wdth' 100;stroke-miterlimit:10;stroke-width:.71px;}.cls-6{letter-spacing:-.11em;}.cls-7{fill:url(#_称未設定グラデーション_2);}.cls-8{letter-spacing:-.12em;}.cls-9{fill:#41aa5c;}</style><radialGradient id="_称未設定グラデーション_2" cx="96.65" cy="640.58" fx="65.73" fy="605.01" r="113.91" gradientTransform="translate(0 1573.99) scale(1 -2.1)" gradientUnits="userSpaceOnUse"><stop offset="0" stop-color="#fff"/><stop offset=".01" stop-color="#fcfcfe"/><stop offset=".47" stop-color="#8a88d4"/><stop offset=".53" stop-color="#7573cc"/><stop offset=".71" stop-color="#302db4"/><stop offset=".8" stop-color="#1511aa"/></radialGradient></defs><path class="cls-7" d="M116.38,327.44c24.33-71.7,53.53-133.15,87.59-194.61,5.84-8.71,11.44-17.41,17.03-25.61C198.86,49.87,165.28,13,127.33,13,60.9,13,6.89,126.69,6.89,266.5s54.01,253.5,120.44,253.5c16.06,0,31.14-6.66,45.01-18.44-29.68-54.8-84.91-79.89-55.96-174.12Z"/><path class="cls-9" d="M208.15,144.25c-29.84,63-55.38,125.44-75.91,196.96-24.59,93.66,27.21,109.55,56.1,157.79,39.86-42,66.36-132.82,63.73-233.85-1.43-57.33-12.17-108.98-28.88-148.15-4.77,9.08-9.79,18.16-15.04,27.25Z"/><text class="cls-2" transform="translate(251.94 325.22) scale(.43 1)"><tspan x="0" y="0">南九州短期大学</tspan></text><text class="cls-3" transform="translate(258 519.99) scale(.28 1)"><tspan class="cls-1" x="0" y="0">MINAMI</tspan><tspan class="cls-8" x="911.4" y="0">	</tspan><tspan class="cls-1" x="929.21" y="0">KYUSYU</tspan><tspan class="cls-4" x="1851.6" y="0">	</tspan><tspan class="cls-1" x="1905.43" y="0">JUNIOR</tspan><tspan class="cls-6" x="2773.82" y="0">	</tspan><tspan class="cls-5" x="2794.64" y="0">COLLEGE </tspan></text></svg>