<?xml version="1.0" encoding="UTF-8"?><svg id="_イヤー_1" xmlns="http://www.w3.org/2000/svg" xmlns:xlink="http://www.w3.org/1999/xlink" viewBox="0 0 1366 768"><defs><style>.cls-1{letter-spacing:.2em;}.cls-2{font-family:MyriadConceptRoman-Regular, 'Myriad Variable Concept';font-size:73.34px;font-variation-settings:'wght' 400, 'wdth' 100;stroke-miterlimit:10;stroke-width:.71px;}.cls-2,.cls-3{stroke:#000;}.cls-4{letter-spacing:.2em;}.cls-5{letter-spacing:-.11em;}.cls-6{letter-spacing:-.12em;}.cls-7{letter-spacing:.06em;}.cls-3{font-family:HGSGothicE, HGSGothicE;font-size:183.01px;isolation:isolate;stroke-linecap:round;stroke-linejoin:round;stroke-width:.71px;}.cls-8{fill:url(#_称未設定グラデーション_2);}.cls-9{fill:#41aa5c;}</style><radialGradient id="_称未設定グラデーション_2" cx="85.82" cy="666.07" fx="60.06" fy="636.44" r="94.9" gradientTransform="translate(-4.06 973.95) scale(1.26 -1.29)" gradientUnits="userSpaceOnUse"><stop offset="0" stop-color="#fff"/><stop offset=".01" stop-color="#fcfcfe"/><stop offset=".47" stop-color="#8a88d4"/><stop offset=".53" stop-color="#7573cc"/><stop offset=".71" stop-color="#302db4"/><stop offset=".8" stop-color="#1511aa"/></radialGradient></defs><path class="cls-8" d="M124.45,167.82c25.48-36.56,56.05-67.89,91.71-99.22,6.11-4.44,11.97-8.88,17.83-13.06C210.82,26.3,175.66,7.5,135.92,7.5,66.37,7.5,9.81,65.47,9.81,136.75s56.56,129.25,126.11,129.25c16.81,0,32.61-3.39,47.13-9.4-31.08-27.94-88.91-40.73-58.59-88.78Z"/><text class="cls-3" transform="translate(254.08 163.98) scale(.86 1)"><tspan x="0" y="0">南九州短期大学</tspan></text><text class="cls-2" transform="translate(263.87 265.66) scale(.77 1)"><tspan class="cls-1" x="0" y="0">MINAMI</tspan><tspan class="cls-6" x="334.15" y="0">	</tspan><tspan class="cls-4" x="340.69" y="0">KYUSYU</tspan><tspan class="cls-7" x="678.87" y="0">	</tspan><tspan class="cls-4" x="698.61" y="0">JUNIOR</tspan><tspan class="cls-5" x="1016.99" y="0">	</tspan><tspan class="cls-4" x="1024.62" y="0">COLLEGE </tspan></text><path class="cls-9" d="M217.61,79.55c-31.39,29.03-58.25,57.79-79.85,90.75-25.86,43.15,28.62,50.47,59.01,72.7,41.93-19.35,69.8-61.19,67.04-107.74-1.51-26.41-12.81-50.21-30.38-68.26-5.02,4.18-10.29,8.37-15.82,12.55Z"/></svg>