<?xml version="1.0" encoding="UTF-8"?><svg id="_イヤー_1" xmlns="http://www.w3.org/2000/svg" xmlns:xlink="http://www.w3.org/1999/xlink" viewBox="0 0 1366 768"><defs><style>.cls-1{letter-spacing:.2em;}.cls-2{letter-spacing:-.12em;}.cls-3{letter-spacing:-.11em;}.cls-4{font-family:MyriadConceptRoman-Regular, 'Myriad Variable Concept';font-size:85.3px;font-variation-settings:'wght' 400, 'wdth' 100;stroke-miterlimit:10;stroke-width:.71px;}.cls-4,.cls-5{stroke:#000;}.cls-6{letter-spacing:.2em;}.cls-5{font-family:HGSGothicE, HGSGothicE;font-size:256.3px;isolation:isolate;stroke-linecap:round;stroke-linejoin:round;stroke-width:.71px;}.cls-7{fill:url(#_称未設定グラデーション_2);}.cls-8{letter-spacing:.06em;}.cls-9{fill:#41aa5c;}</style><radialGradient id="_称未設定グラデーション_2" cx="97.71" cy="644.21" fx="66.78" fy="608.65" r="113.91" gradientTransform="translate(0 1109.22) scale(1 -1.47)" gradientUnits="userSpaceOnUse"><stop offset="0" stop-color="#fff"/><stop offset=".01" stop-color="#fcfcfe"/><stop offset=".47" stop-color="#8a88d4"/><stop offset=".53" stop-color="#7573cc"/><stop offset=".71" stop-color="#302db4"/><stop offset=".8" stop-color="#1511aa"/></radialGradient></defs><path class="cls-7" d="M117.43,234.74c24.33-49.99,53.53-92.84,87.59-135.69,5.84-6.07,11.44-12.14,17.03-17.85C199.91,41.21,166.34,15.5,128.38,15.5,61.96,15.5,7.94,94.77,7.94,192.25s54.01,176.75,120.44,176.75c16.06,0,31.14-4.64,45.01-12.85-29.68-38.21-84.91-55.7-55.96-121.4Z"/><text class="cls-5" transform="translate(255.08 236.96) scale(.61 1)"><tspan x="0" y="0">南九州短期大学</tspan></text><text class="cls-4" transform="translate(260.87 368.67) scale(.66 1)"><tspan class="cls-1" x="0" y="0">MINAMI</tspan><tspan class="cls-2" x="388.64" y="0">	</tspan><tspan class="cls-1" x="396.23" y="0">KYUSYU</tspan><tspan class="cls-8" x="789.56" y="0">	</tspan><tspan class="cls-1" x="812.51" y="0">JUNIOR</tspan><tspan class="cls-3" x="1182.82" y="0">	</tspan><tspan class="cls-6" x="1191.69" y="0">COLLEGE </tspan></text><path class="cls-9" d="M208.66,110.9c-31.4,41.4-58.29,82.42-79.89,129.42-25.88,61.54,28.64,71.98,59.04,103.68,41.96-27.6,69.84-87.27,67.08-153.66-1.51-37.67-12.81-71.61-30.4-97.34-5.02,5.97-10.3,11.93-15.83,17.9Z"/></svg>