<svg xmlns="http://www.w3.org/2000/svg" viewBox="0 0 600 150"><path fill="#41aa5c" d="M94 30C81.5 41.1 70.8 52.1 62.2 64.7 51.9 81.2 73.6 84 85.7 92.5c16.7-7.4 27.8-23.4 26.7-41.2-.6-10.1-5.1-19.2-12.1-26.1-2 1.6-4.1 3.2-6.3 4.8z"/><radialGradient id="a" cx="45.393" cy="43.63" r="46.819" fx="32.682" fy="29.013" gradientUnits="userSpaceOnUse"><stop offset="0" stop-color="#fff"/><stop offset=".012" stop-color="#fcfcfe"/><stop offset=".474" stop-color="#8a88d4"/><stop offset=".528" stop-color="#7573cc"/><stop offset=".714" stop-color="#302db4"/><stop offset=".801" stop-color="#1511aa"/></radialGradient><path fill="url(#a)" d="M53.5 63.5c10-14 22-26 36-38 2.4-1.7 4.7-3.4 7-5C87.4 9.3 73.6 2.1 58 2.1 30.7 2.1 8.5 24.3 8.5 51.6s22.2 49.5 49.5 49.5c6.6 0 12.8-1.3 18.5-3.6-12.2-10.7-34.9-15.6-23-34z"/><path fill="none" d="M59 242.5c0-42.8 24.2-77.5 54-77.5m-54 77.5H46m-49.6 20.7c-14.5-20.6 21.5-70.7 80.3-112.1m-27 84.9c-11.8-12.5 4.4-47 36.3-77.1"/><text stroke="#000" stroke-linecap="round" stroke-linejoin="round" stroke-miterlimit="10" stroke-width=".709" font-family="HGSGothicE" font-size="63.779" transform="translate(127.37 58.9)">南九州短期大学</text><path d="M141.1 85.2c0-3.1 0-6.1.1-7.7h-.1c-.6 2.1-3.9 10-5.9 15H134c-1.5-3.9-4.9-12.6-5.6-15 .1 1.8.2 5.5.2 8.2v6.8h-1.2V76.7h1.8c2.2 5.4 4.9 12.6 5.5 14.4.4-1.2 3.5-9.1 5.8-14.4h1.8v15.9h-1.2v-7.4zm9.6-8.5v15.9h-1.2V76.7h1.2zm7.2 15.8V76.7h1.8c2.5 3.8 8.3 12.7 9.3 14.4-.1-2.3-.1-4.6-.1-7.2v-7.2h1.2v15.9h-1.7c-2.4-3.7-8.3-12.9-9.4-14.6.1 2.1.1 4.4.1 7.3v7.4h-1.2zm21-5.5l-2 5.5h-1.2l5.8-15.9h1.5l6.1 15.9h-1.3l-2.1-5.5h-6.8zm6.3-1.1c-1.8-4.7-2.7-7-3-8-.4 1.2-1.4 4-2.8 8h5.8zm23.1-.7c0-3.1 0-6.1.1-7.7h-.1c-.6 2.1-3.9 10-5.9 15h-1.2c-1.5-3.9-4.9-12.6-5.6-15 .1 1.8.2 5.5.2 8.2v6.8h-1.2V76.7h1.8c2.2 5.4 4.9 12.6 5.5 14.4.4-1.2 3.5-9.1 5.8-14.4h1.8v15.9h-1.2v-7.4zm9.6-8.5v15.9h-1.2V76.7h1.2zm15.8 0h1.2V85c1.3-1.2 5.8-5.5 8.6-8.3h1.6l-7.1 6.8 7.5 9.1H244l-6.9-8.3-2.3 2v6.3h-1.2V76.7zm20.2 15.8v-6c0-.1 0-.3-.1-.4l-5.7-9.5h1.4c1.6 2.7 4.4 7.4 5 8.6.7-1.2 3.5-5.8 5.2-8.6h1.4l-5.9 9.6c0 .1-.1.2-.1.3v5.9h-1.2zm13.3-15.8v9.6c0 4.2 2.4 5.3 4.6 5.3 2.7 0 4.6-1.1 4.6-5.3v-9.6h1.2v9.5c0 5-2.6 6.5-5.9 6.5-3.1 0-5.8-1.7-5.8-6.3v-9.8h1.3zm17.7 11.6c.5 2.1 1.9 3.4 4.5 3.4 2.9 0 4-1.5 4-3.2 0-1.8-.8-2.9-4.3-3.8-3.4-.8-4.8-1.9-4.8-4.2 0-2.1 1.5-4 4.9-4 3.5 0 5 2.1 5.2 4.1h-1.3c-.4-1.7-1.5-2.9-4-2.9-2.3 0-3.5 1.1-3.5 2.8 0 1.7 1 2.4 4 3.2 4.5 1.1 5.1 2.9 5.1 4.8 0 2.3-1.7 4.4-5.4 4.4-4 0-5.4-2.3-5.7-4.4h1.3zm15.9-11.6h1.2v6.9h9.5v-6.9h1.2v15.9h-1.2v-7.8H302v7.8h-1.2V76.7zm20.3 0v9.6c0 4.2 2.4 5.3 4.6 5.3 2.7 0 4.6-1.1 4.6-5.3v-9.6h1.2v9.5c0 5-2.6 6.5-5.9 6.5-3.1 0-5.8-1.7-5.8-6.3v-9.8h1.3zm29.7 11.5c0 3.5-1.6 4.6-3.7 4.6-.7 0-1-.1-1.4-.1v-1.1c.3.1.9.1 1.4.1 2.1 0 2.4-1.7 2.4-3.4V76.7h1.2v11.5zm8.2-11.5v9.6c0 4.2 2.4 5.3 4.6 5.3 2.7 0 4.6-1.1 4.6-5.3v-9.6h1.2v9.5c0 5-2.6 6.5-5.9 6.5-3.1 0-5.8-1.7-5.8-6.3v-9.8h1.3zm17.6 15.8V76.7h1.8c2.5 3.8 8.3 12.7 9.3 14.4-.1-2.3-.1-4.6-.1-7.2v-7.2h1.2v15.9h-1.7c-2.4-3.7-8.3-12.9-9.4-14.6.1 2.1.1 4.4.1 7.3v7.4h-1.2zm20.6-15.8v15.9H396V76.7h1.2zm20.5 7.8c0 4.3-2.3 8.3-7.2 8.3-4.5 0-7.1-3.6-7.1-8.2 0-4.5 2.5-8.2 7.2-8.2 4.4 0 7.1 3.5 7.1 8.1zm-12.9 0c0 3.7 2 7.1 5.8 7.1 4.1 0 5.8-3.4 5.8-7.1 0-3.7-1.9-6.9-5.8-6.9-4.1 0-5.8 3.3-5.8 6.9zm20.4.6v7.4H424V76.7h5.7c3.1 0 4.8 1.7 4.8 4.2 0 2-1.2 3.3-3 3.7 1.6.4 2.7 1.5 2.7 4.1v.6c0 1.1-.1 2.6.2 3.2h-1.2c-.3-.7-.2-2-.2-3.3v-.4c0-2.6-.8-3.7-3.8-3.7h-4zm0-1.1h3.8c2.8 0 4.1-1 4.1-3.1 0-1.9-1.3-3.1-3.7-3.1h-4.2V84zm36.3 4.3c-.7 2.5-2.6 4.4-6 4.4-4.6 0-7-3.6-7-8.1 0-4.3 2.4-8.2 7-8.2 3.4 0 5.4 1.9 6 4.6h-1.2c-.7-2.1-2.1-3.4-4.8-3.4-3.9 0-5.6 3.6-5.6 7s1.6 7 5.7 7c2.6 0 3.9-1.3 4.7-3.3h1.2zm19.2-3.8c0 4.3-2.3 8.3-7.2 8.3-4.5 0-7.1-3.6-7.1-8.2 0-4.5 2.5-8.2 7.2-8.2 4.4 0 7.1 3.5 7.1 8.1zm-12.9 0c0 3.7 2 7.1 5.8 7.1 4.1 0 5.8-3.4 5.8-7.1 0-3.7-1.9-6.9-5.8-6.9-4 0-5.8 3.3-5.8 6.9zm19.2-7.8h1.2v14.7h8.5l-.2 1.1H487V76.7zm15 0h1.2v14.7h8.5l-.2 1.1H502V76.7zm24.4 8h-8.1v6.7h8.9l-.2 1.1h-9.9V76.7h9.7v1.1h-8.5v5.8h8.1v1.1zm18.9 7.8h-1c-.1-.2-.1-1-.2-2.5-.6 1.1-1.8 2.7-5.1 2.7-4.6 0-6.9-3.5-6.9-8 0-4.7 2.5-8.3 7.1-8.3 3.4 0 5.7 1.8 6.2 4.7h-1.2c-.7-2.2-2.2-3.6-5-3.6-4 0-5.8 3.1-5.8 7.1 0 3.6 1.7 6.9 5.6 6.9 4 0 5.1-2.6 5.1-6.1v-.2H539v-1.1h6.3v8.4zm15.9-7.8h-8.1v6.7h8.9l-.2 1.1h-9.9V76.7h9.7v1.1h-8.5v5.8h8.1v1.1z"/></svg>